HIERARCHY
ROOT SpineBase
{
  OFFSET 0.000000 0.000000 0.000000
  CHANNELS 6 Xposition Yposition Zposition Zrotation Xrotation Yrotation
  JOINT SpineMid
  {
    OFFSET -0.000000 31.343828 0.000000
    CHANNELS 3 Zrotation Xrotation Yrotation
    JOINT SpineShoulder
    {
      OFFSET 0.096129 23.137803 -0.804371
      CHANNELS 3 Zrotation Xrotation Yrotation
      JOINT Neck
      {
        OFFSET 0.039400 7.610499 -0.607978
        CHANNELS 3 Zrotation Xrotation Yrotation
        JOINT Head
        {
          OFFSET 2.760790 14.445956 1.552005
          CHANNELS 3 Zrotation Xrotation Yrotation
          End Site
          {
            OFFSET 0 0 0
          }
        }
      }
      JOINT ShoulderLeft
      {
        OFFSET -16.229262 -3.215552 -6.284047
        CHANNELS 3 Zrotation Xrotation Yrotation
        JOINT ElbowLeft
        {
          OFFSET -5.655454 -25.400503 -2.354109
          CHANNELS 3 Zrotation Xrotation Yrotation
          JOINT WristLeft
          {
            OFFSET 1.986053 -21.890453 -6.020093
            CHANNELS 3 Zrotation Xrotation Yrotation
            JOINT HandLeft
            {
              OFFSET 3.613042 -7.400167 -0.431493
              CHANNELS 3 Zrotation Xrotation Yrotation
              JOINT HandTipLeft
              {
                OFFSET 0.966494 -7.409096 -1.248798
                CHANNELS 3 Zrotation Xrotation Yrotation
                End Site
                {
                  OFFSET 0 0 0
                }
              }
              JOINT ThumbLeft
              {
                OFFSET -2.407532 -0.665676 -2.001628
                CHANNELS 3 Zrotation Xrotation Yrotation
                End Site
                {
                  OFFSET 0 0 0
                }
              }
            }
          }
        }
      }
      JOINT ShoulderRight
      {
        OFFSET 18.297785 -4.725199 5.987128
        CHANNELS 3 Zrotation Xrotation Yrotation
        JOINT ElbowRight
        {
          OFFSET 2.452352 -26.624412 2.980759
          CHANNELS 3 Zrotation Xrotation Yrotation
          JOINT WristRight
          {
            OFFSET 0.286180 -21.052332 -9.154094
            CHANNELS 3 Zrotation Xrotation Yrotation
            JOINT HandRight
            {
              OFFSET -1.755913 -2.500685 -3.963807
              CHANNELS 3 Zrotation Xrotation Yrotation
              JOINT HandTipRight
              {
                OFFSET -1.104066 -5.672401 -2.988175
                CHANNELS 3 Zrotation Xrotation Yrotation
                End Site
                {
                  OFFSET 0 0 0
                }
              }
              JOINT ThumbRight
              {
                OFFSET -3.286644 0.819103 -2.829158
                CHANNELS 3 Zrotation Xrotation Yrotation
                End Site
                {
                  OFFSET 0 0 0
                }
              }
            }
          }
        }
      }
    }
  }
  JOINT HipLeft
  {
    OFFSET -7.504428 0.899369 -6.073532
    CHANNELS 3 Zrotation Xrotation Yrotation
    JOINT KneeLeft
    {
      OFFSET -6.849418 -35.605597 2.750984
      CHANNELS 3 Zrotation Xrotation Yrotation
      JOINT AnkleLeft
      {
        OFFSET 0.176793 -34.076812 10.922455
        CHANNELS 3 Zrotation Xrotation Yrotation
        JOINT FootLeft
        {
          OFFSET -0.113112 -9.829968 -4.413525
          CHANNELS 3 Zrotation Xrotation Yrotation
          End Site
          {
            OFFSET 0 0 0
          }
        }
      }
    }
  }
  JOINT HipRight
  {
    OFFSET 7.273568 0.034415 -1.776706
    CHANNELS 3 Zrotation Xrotation Yrotation
    JOINT KneeRight
    {
      OFFSET -1.485886 -36.059112 -0.932757
      CHANNELS 3 Zrotation Xrotation Yrotation
      JOINT AnkleRight
      {
        OFFSET -4.803372 -35.251244 8.621963
        CHANNELS 3 Zrotation Xrotation Yrotation
        JOINT FootRight
        {
          OFFSET 0.330731 -8.677544 -6.575764
          CHANNELS 3 Zrotation Xrotation Yrotation
          End Site
          {
            OFFSET 0 0 0
          }
        }
      }
    }
  }
}
MOTION
Frames: 9
Frame Time: 0.033333
12.113749 79.060927 366.108464 -2.582437 -1.434544 -21.476935 0.041005 0.241765 21.367413 0.243236 0.097006 -0.091230 -2.672028 5.183068 0.164617 0.000000 0.000000 0.000000 -7.526136 2.232397 1.070965 46.983154 9.254491 -12.167307 0.441964 -11.183034 10.465857 8.027783 9.091771 -7.527805 0.000000 0.000000 0.000000 0.000000 0.000000 0.000000 -0.722528 9.653070 0.894750 -16.230348 18.740321 9.477861 -7.343466 -34.233452 18.855533 -7.375652 40.763945 -8.064194 0.000000 0.000000 0.000000 0.000000 0.000000 0.000000 -1.590836 0.722416 21.240829 0.088975 1.611584 -0.874867 13.980079 25.597536 -5.488611 0.000000 0.000000 0.000000 11.504158 10.321957 19.868707 4.548534 5.934395 2.559254 -0.439635 14.295098 -13.807610 0.000000 0.000000 0.000000
13.679326 78.815808 365.284967 -3.889852 -1.059427 -22.303941 0.062158 0.320655 22.149689 0.317880 0.125090 -0.140267 -3.320764 5.870633 0.350122 0.000000 0.000000 0.000000 -8.520992 2.868435 1.200840 50.949027 8.941627 -12.076904 -0.301063 -6.833020 11.694928 6.045091 1.974920 -6.992228 0.000000 0.000000 0.000000 0.000000 0.000000 0.000000 -0.928070 9.818360 1.020111 -20.604372 22.856843 13.186719 -5.760806 -32.501118 13.542699 -12.474607 34.608099 -4.317731 0.000000 0.000000 0.000000 0.000000 0.000000 0.000000 -1.113331 0.005689 22.035794 0.162204 1.322270 -1.212410 11.673513 22.286023 -3.027755 0.000000 0.000000 0.000000 13.151884 10.792321 20.556272 6.302961 7.477437 2.632641 -1.760586 14.547830 -14.777807 0.000000 0.000000 0.000000
15.404718 78.565214 364.310251 -5.478410 -0.597019 -22.620323 0.006598 0.368078 22.422783 0.296423 0.155179 -0.211298 -3.446661 6.362653 0.580914 0.000000 0.000000 0.000000 -8.823756 3.120816 1.366761 54.912455 8.835339 -12.237579 -3.310351 -1.859379 12.845865 5.181191 -8.577162 -6.016819 0.000000 0.000000 0.000000 0.000000 0.000000 0.000000 -0.727948 9.360181 1.100640 -25.722450 27.807970 18.026376 -1.523138 -33.882000 8.293595 -17.645142 32.559343 0.132512 0.000000 0.000000 0.000000 0.000000 0.000000 0.000000 -0.198982 -0.495293 22.313387 -0.206423 0.770128 -1.639049 11.704327 25.182063 -2.168021 0.000000 0.000000 0.000000 14.789575 10.995963 20.802637 7.363149 7.711805 2.815921 -4.280983 9.920039 -14.112796 0.000000 0.000000 0.000000
17.200477 78.299479 363.307277 -7.172894 0.000395 -22.785928 0.013559 0.427609 22.565222 0.203353 0.150284 -0.291337 -2.295947 6.196481 0.705153 0.000000 0.000000 0.000000 -9.370007 3.001508 1.592841 59.185602 9.715560 -12.807368 -6.251352 -0.550236 13.751376 4.877797 -13.204887 -5.826440 0.000000 0.000000 0.000000 0.000000 0.000000 0.000000 -0.433688 8.907719 1.189781 -31.529982 31.475532 23.435845 5.522118 -36.880508 3.938430 -33.324153 29.405778 11.211251 0.000000 0.000000 0.000000 0.000000 0.000000 0.000000 0.950671 -0.908627 22.439767 -0.838716 0.081274 -2.109035 8.553538 21.820509 1.069767 0.000000 0.000000 0.000000 16.443936 11.127202 20.944638 7.721337 7.387948 2.978910 -6.392423 5.066514 -13.093373 0.000000 0.000000 0.000000
19.154819 78.177731 362.384198 -9.137086 0.614050 -23.048680 0.009828 0.439252 22.814462 0.342021 0.204470 -0.361443 -0.961238 6.376295 0.786314 0.000000 0.000000 0.000000 -10.544958 1.932938 1.925540 63.581976 11.015710 -13.988724 -8.298932 0.226160 14.428407 3.069867 -18.079114 -5.684702 0.000000 0.000000 0.000000 0.000000 0.000000 0.000000 0.573755 8.351424 1.292889 -36.842399 33.752874 28.053859 12.697274 -38.902717 1.100167 -42.262078 19.449284 14.864466 0.000000 0.000000 0.000000 0.000000 0.000000 0.000000 2.235215 -1.403187 22.673855 -1.280555 -0.446067 -2.587636 4.415378 14.582308 4.781336 0.000000 0.000000 0.000000 17.718358 11.169508 21.278287 7.727293 6.431771 3.106389 -6.811564 4.128642 -12.273920 0.000000 0.000000 0.000000
21.221061 78.141991 361.482931 -11.210609 1.062447 -23.041984 0.031473 0.416211 22.794081 0.433393 0.166959 -0.445812 -0.264514 6.269066 1.095196 0.000000 0.000000 0.000000 -8.797755 2.429576 1.991123 65.555735 11.827928 -14.177113 -13.193801 -1.411625 14.539934 4.917506 -24.964869 -4.412549 0.000000 0.000000 0.000000 0.000000 0.000000 0.000000 2.181986 7.594568 1.369260 -41.361055 35.078481 31.904795 14.173341 -39.681687 0.713543 -49.275209 21.443356 19.293385 0.000000 0.000000 0.000000 0.000000 0.000000 0.000000 3.550863 -1.340546 22.607992 -2.262302 -0.915794 -3.146496 1.358534 4.846217 7.808313 0.000000 0.000000 0.000000 19.017777 11.101904 21.337845 7.596795 5.656764 3.098527 -6.119462 6.917302 -11.803478 0.000000 0.000000 0.000000
23.114463 78.238948 360.679294 -13.128046 1.327463 -22.718742 0.045364 0.375309 22.452598 0.480746 0.107900 -0.531864 0.538869 5.727639 1.444795 0.000000 0.000000 0.000000 -5.485664 3.646975 1.913244 64.042395 12.114434 -13.182240 -15.553725 -6.118852 13.586496 10.062454 -25.607400 -2.741062 0.000000 0.000000 0.000000 0.000000 0.000000 0.000000 4.123092 6.523002 1.384982 -44.716157 35.975709 34.827210 12.822687 -44.119041 1.987731 -51.509634 23.669929 21.451126 0.000000 0.000000 0.000000 0.000000 0.000000 0.000000 4.647500 -0.960602 22.203993 -3.147833 -1.399280 -3.633075 1.935095 3.615672 8.781691 0.000000 0.000000 0.000000 20.139944 10.991469 21.066533 6.806898 4.618827 2.974276 -5.712899 7.143752 -10.559420 0.000000 0.000000 0.000000
24.970940 78.389461 359.969894 -14.660372 1.513090 -22.516994 0.101126 0.322877 22.235413 0.470156 0.047392 -0.606936 0.330418 5.254685 1.851060 0.000000 0.000000 0.000000 -3.983133 3.824420 2.035822 62.609214 13.159766 -12.809925 -11.931921 -7.567889 13.693683 9.290195 -27.533401 -1.929112 0.000000 0.000000 0.000000 0.000000 0.000000 0.000000 6.442629 5.294890 1.386127 -49.032387 37.327293 38.217191 15.637837 -46.057364 1.685638 -53.559247 25.725203 24.101540 0.000000 0.000000 0.000000 0.000000 0.000000 0.000000 5.174012 -0.817653 21.913561 -3.608913 -1.470910 -4.024768 4.903213 7.795357 8.470158 0.000000 0.000000 0.000000 20.567715 10.669462 20.989015 6.525310 3.827218 2.810259 -3.671201 12.635026 -10.498114 0.000000 0.000000 0.000000
26.792356 78.536487 359.246241 -16.285445 1.637213 -22.578220 0.155400 0.387278 22.291009 0.613932 0.040876 -0.663924 0.323205 4.797377 2.174253 0.000000 0.000000 0.000000 -3.463118 3.265688 2.259920 62.088459 14.328231 -12.933655 -10.598346 -9.765478 13.324081 10.841402 -23.220577 -2.447325 0.000000 0.000000 0.000000 0.000000 0.000000 0.000000 8.363250 3.321909 1.267776 -52.790974 37.947873 41.596920 16.736215 -42.972959 1.013592 -53.111566 27.412982 23.722565 0.000000 0.000000 0.000000 0.000000 0.000000 0.000000 5.670941 -0.783338 21.885781 -3.589825 -1.092346 -4.278541 6.128017 8.205812 8.744881 0.000000 0.000000 0.000000 21.078904 10.518508 21.120074 6.571920 3.456609 2.621262 -3.214660 14.311572 -9.736340 0.000000 0.000000 0.000000
